<svg xmlns="http://www.w3.org/2000/svg" width="130" height="148" viewBox="0 0 130 148"><rect width="100%" height="100%" fill="#DDDDDD"/><path fill="#999999" d="M30.82 78.84h2.34v1.67h-7.2v-1.67h2.64v-7.58q0-.45.03-.93l-1.88 1.57q-.16.12-.32.15-.15.04-.29.01t-.25-.1q-.11-.06-.16-.14l-.7-.97 3.96-3.37h1.83zm5.61-7.51-1.17-.21q.13-.93.52-1.64t.97-1.18 1.33-.71 1.62-.24q.9 0 1.62.26.72.25 1.24.71.51.45.78 1.07.28.61.28 1.32 0 .62-.14 1.09t-.4.83q-.26.35-.65.59t-.87.4q1.17.37 1.74 1.13.58.76.58 1.9 0 .97-.36 1.72-.36.74-.97 1.25t-1.42.77q-.8.26-1.71.26-.98 0-1.71-.22-.72-.23-1.26-.67t-.92-1.08-.65-1.47l.98-.41q.39-.16.73-.08.33.07.49.36.16.32.35.62.2.31.47.55.27.23.63.38t.87.15q.56 0 .99-.18.42-.19.7-.48.29-.3.43-.67.14-.36.14-.73 0-.47-.1-.85t-.42-.65q-.31-.27-.9-.43-.59-.15-1.58-.15v-1.58q.82-.01 1.36-.16.54-.14.86-.4.32-.25.44-.61.13-.36.13-.79 0-.92-.51-1.4-.52-.48-1.37-.48-.4 0-.73.12-.33.11-.6.31-.26.2-.44.47t-.27.6q-.16.41-.4.55-.25.13-.7.06M54.72 74q0 1.7-.37 2.96-.36 1.25-1.01 2.07-.64.82-1.52 1.22-.87.4-1.89.4t-1.89-.4-1.5-1.22q-.64-.82-1-2.07-.36-1.26-.36-2.96 0-1.71.36-2.96t1-2.07q.63-.82 1.5-1.22t1.89-.4 1.89.4q.88.4 1.52 1.22.65.82 1.01 2.07.37 1.25.37 2.96m-2.3 0q0-1.41-.21-2.34-.2-.92-.55-1.47t-.8-.77-.93-.22-.92.22q-.45.22-.79.77t-.55 1.47q-.2.93-.2 2.34 0 1.42.2 2.34.21.93.55 1.48t.79.77q.44.22.92.22t.93-.22.8-.77.55-1.48q.21-.92.21-2.34m16.59 3.53-1.18 1.16-3.05-3.05-3.08 3.07-1.18-1.16 3.08-3.09-2.93-2.93 1.17-1.17 2.93 2.93 2.92-2.91 1.18 1.17-2.92 2.92zm12.32 1.31h2.34v1.67h-7.2v-1.67h2.64v-7.58q0-.45.02-.93l-1.87 1.57q-.16.12-.32.15-.16.04-.3.01-.13-.03-.24-.1-.11-.06-.16-.14l-.71-.97 3.97-3.37h1.83zm5.91-3.24h3.96v-4.25q0-.61.08-1.33zm5.9 0h1.64v1.29q0 .18-.12.31t-.33.13h-1.19v3.18H91.2v-3.18h-5.49q-.22 0-.39-.14t-.22-.34l-.23-1.13 6.16-8.23h2.11zm7.31 3.32q.55 0 .97-.16.41-.16.69-.44.29-.28.43-.66.15-.39.15-.84 0-1.07-.6-1.62-.59-.55-1.64-.55-1.04 0-1.63.55-.6.55-.6 1.62 0 .45.15.84.14.38.42.66.29.28.7.44.42.16.96.16m0-9.89q-.49 0-.85.15t-.6.41q-.24.25-.35.59-.11.33-.11.7 0 .39.09.75.1.37.32.65.23.28.6.45.36.17.9.17t.91-.17.6-.45q.22-.28.32-.65.09-.36.09-.75 0-.37-.12-.7-.11-.34-.35-.59-.23-.26-.59-.41t-.86-.15m2.2 4.69q1.19.39 1.76 1.19.56.79.56 1.95 0 .86-.33 1.56-.32.7-.92 1.2-.59.49-1.43.76-.83.27-1.84.27-1 0-1.84-.27-.83-.27-1.42-.76-.6-.5-.93-1.2-.32-.7-.32-1.56 0-1.16.56-1.95.57-.8 1.76-1.19-.95-.39-1.42-1.12t-.47-1.76q0-.73.3-1.37t.84-1.11q.54-.48 1.29-.74.75-.27 1.65-.27t1.66.27q.75.26 1.29.74.54.47.84 1.11t.3 1.37q0 1.03-.47 1.76t-1.42 1.12"/></svg>